<?xml version="1.0" encoding="utf-8"?>
<svg viewBox="0 0 100 100" xmlns="http://www.w3.org/2000/svg" xmlns:xlink="http://www.w3.org/1999/xlink">
  <defs>
    <linearGradient gradientUnits="userSpaceOnUse" x1="50" y1="0" x2="50" y2="100" id="gradient-8" gradientTransform="matrix(0.817136, -0.576445, 0.511669, 0.725313, -25.147628, 40.850998)">
      <stop offset="0" style="stop-color: rgba(1, 17, 16, 1)"/>
      <stop offset="1" style="stop-color: rgb(10, 27, 25);"/>
    </linearGradient>
    <linearGradient gradientUnits="userSpaceOnUse" x1="66.278" y1="8.04" x2="66.278" y2="60.955" id="gradient-1" gradientTransform="matrix(0.62223, -0.782834, 0.831251, 0.660714, -12.232569, 81.720764)" spreadMethod="pad">
      <stop offset="0" style="stop-color: rgb(45, 237, 151);"/>
      <stop offset="1" style="stop-color: rgba(83, 139, 240, 0);"/>
    </linearGradient>
    <linearGradient gradientUnits="userSpaceOnUse" x1="50.053" y1="24.735" x2="50.053" y2="77.65" id="gradient-0" spreadMethod="pad" gradientTransform="matrix(0.552167, -0.833735, 0.203571, 0.134821, 22.945614, 95.267575)">
      <stop offset="0" style="stop-color: rgb(56, 14, 114);"/>
      <stop offset="1" style="stop-color: rgb(180, 180, 180);"/>
    </linearGradient>
    <linearGradient id="gradient-2-0" gradientUnits="userSpaceOnUse" x1="50.006" y1="36.855" x2="50.006" y2="73.561" gradientTransform="matrix(0.072489, 0.998015, -0.5953, 0.036448, 76.628746, -3.442898)" xlink:href="#gradient-2"/>
    <linearGradient id="gradient-2">
      <stop style="stop-color: rgb(0, 255, 234);" offset="0"/>
      <stop style="stop-color: rgba(99, 43, 196, 0.9);" offset="1"/>
    </linearGradient>
    <linearGradient id="gradient-3-0" gradientUnits="userSpaceOnUse" x1="50.006" y1="36.855" x2="50.006" y2="73.561" gradientTransform="matrix(1.014848, 0, 0.009602, 0.999937, -1.274883, 0.003619)" xlink:href="#gradient-3"/>
    <linearGradient id="gradient-3">
      <stop style="stop-color: rgb(56, 14, 114);" offset="0"/>
      <stop style="stop-color: rgb(180, 180, 180);" offset="1"/>
    </linearGradient>
    <filter id="point-light-filter-0" primitiveUnits="objectBoundingBox" x="-500%" y="-500%" width="1000%" height="1000%">
      <feSpecularLighting result="specular-lighting" lighting-color="#ffffff" specularConstant="1" specularExponent="70">
        <fePointLight x="0.5" y="0.5" z="0.5"/>
      </feSpecularLighting>
      <feDiffuseLighting result="diffuse-lighting" lighting-color="#ffffff" diffuseConstant="0.2">
        <fePointLight x="0.5" y="0.5" z="0.5"/>
      </feDiffuseLighting>
      <feMerge result="lighting">
        <feMergeNode in="diffuse-lighting"/>
        <feMergeNode in="specular-lighting"/>
      </feMerge>
      <feComposite in="SourceGraphic" in2="lighting" operator="arithmetic" k1="1" k2="0" k3="0" k4="0"/>
    </filter>
    <linearGradient gradientUnits="userSpaceOnUse" x1="90.747" y1="1.582" x2="90.747" y2="54.497" id="gradient-4" gradientTransform="matrix(-0.001021, -0.999998, 0.875359, -0.000893, 23.985124, 131.821223)" spreadMethod="pad">
      <stop offset="0" style="stop-color: rgba(45, 237, 151, 0.93);"/>
      <stop offset="1" style="stop-color: rgba(83, 138, 240, 0.88);"/>
    </linearGradient>
    <linearGradient gradientUnits="userSpaceOnUse" x1="50.053" y1="24.735" x2="50.053" y2="77.65" id="gradient-5" spreadMethod="pad" gradientTransform="matrix(0.552167, -0.833735, 0.203571, 0.134821, 22.766081, 95.088045)">
      <stop offset="0" style="stop-color: rgb(56, 14, 114);"/>
      <stop offset="1" style="stop-color: rgb(180, 180, 180);"/>
    </linearGradient>
    <linearGradient id="gradient-2-1" gradientUnits="userSpaceOnUse" x1="50.006" y1="36.855" x2="50.006" y2="73.561" gradientTransform="matrix(0.018612, 1.000471, -1.123891, 0.008142, 110.483178, -1.755903)" xlink:href="#gradient-2"/>
    <linearGradient id="gradient-3-1" gradientUnits="userSpaceOnUse" x1="50.006" y1="36.855" x2="50.006" y2="73.561" gradientTransform="matrix(1.014848, 0, 0.009602, 0.999937, -1.274883, 0.003619)" xlink:href="#gradient-3"/>
    <filter id="filter-1" primitiveUnits="objectBoundingBox" x="-500%" y="-500%" width="1000%" height="1000%">
      <feSpecularLighting result="specular-lighting" lighting-color="#ffffff" specularConstant="1" specularExponent="70">
        <fePointLight x="0.5" y="0.5" z="0.5"/>
      </feSpecularLighting>
      <feDiffuseLighting result="diffuse-lighting" lighting-color="#ffffff" diffuseConstant="0.2">
        <fePointLight x="0.5" y="0.5" z="0.5"/>
      </feDiffuseLighting>
      <feMerge result="lighting">
        <feMergeNode in="diffuse-lighting"/>
        <feMergeNode in="specular-lighting"/>
      </feMerge>
      <feComposite in="SourceGraphic" in2="lighting" operator="arithmetic" k1="1" k2="0" k3="0" k4="0"/>
    </filter>
    <linearGradient gradientUnits="userSpaceOnUse" x1="90.747" y1="1.582" x2="90.747" y2="54.497" id="gradient-6" gradientTransform="matrix(-0.001021, -0.999998, 0.875359, -0.000893, 23.985124, 131.821223)" spreadMethod="pad">
      <stop offset="0" style="stop-color: rgba(45, 237, 151, 0.93);"/>
      <stop offset="1" style="stop-color: rgba(83, 138, 240, 0.88);"/>
    </linearGradient>
    <linearGradient gradientUnits="userSpaceOnUse" x1="50.053" y1="24.735" x2="50.053" y2="77.65" id="gradient-7" spreadMethod="pad" gradientTransform="matrix(0.552167, -0.833735, 0.203571, 0.134821, 22.766081, 95.088045)">
      <stop offset="0" style="stop-color: rgb(56, 14, 114);"/>
      <stop offset="1" style="stop-color: rgb(180, 180, 180);"/>
    </linearGradient>
  </defs>
  <rect width="100" height="100" rx="50" style="fill: url(#gradient-8);"/>
  <path d="M 73.693 24.735 L 82.717 24.735 L 74.518 73.704 C 74.33 74.676 73.921 75.515 73.289 76.224 C 72.645 76.933 71.867 77.38 70.955 77.569 C 70.021 77.744 69.14 77.634 68.309 77.235 C 67.481 76.847 66.821 76.241 66.335 75.412 L 50.075 46.923 L 33.755 75.412 C 33.371 76.12 32.841 76.667 32.168 77.053 C 31.495 77.45 30.772 77.65 30.006 77.65 C 28.937 77.65 27.987 77.286 27.158 76.558 C 26.338 75.826 25.841 74.876 25.667 73.704 L 17.388 24.735 L 26.409 24.735 L 32.293 59.243 L 46.309 35.413 C 46.694 34.707 47.224 34.157 47.897 33.772 C 48.571 33.386 49.298 33.192 50.075 33.192 C 50.842 33.192 51.557 33.386 52.223 33.772 C 52.886 34.157 53.431 34.707 53.857 35.413 L 67.811 59.243 L 73.693 24.735 Z" style="stroke-miterlimit: 25; stroke-dashoffset: 21px; vector-effect: non-scaling-stroke; stroke-width: 3px; stroke: url(#gradient-0); fill: url(#gradient-1);"/>
  <path d="M 83.308 24.235 L 83.21 24.818 L 75.009 73.799 C 74.8 74.833 74.329 75.794 73.659 76.56 C 72.955 77.318 72.033 77.843 71.047 78.06 C 70.036 78.238 69.002 78.108 68.095 77.687 C 67.205 77.256 66.433 76.547 65.901 75.66 L 50.074 47.93 L 34.195 75.65 C 33.77 76.413 33.146 77.056 32.419 77.485 C 31.686 77.908 30.839 78.15 30.006 78.15 C 28.848 78.15 27.73 77.705 26.825 76.931 C 25.95 76.128 25.374 75.039 25.174 73.787 L 16.796 24.235 L 26.831 24.235 L 32.556 57.81 L 45.876 35.163 C 46.301 34.408 46.92 33.767 47.649 33.338 C 48.382 32.927 49.234 32.692 50.075 32.692 C 50.907 32.692 51.748 32.929 52.474 33.34 C 53.189 33.765 53.826 34.408 54.288 35.16 L 67.549 57.806 L 73.271 24.235 Z M 68.073 60.68 L 53.426 35.666 C 53.036 35.006 52.583 34.549 51.972 34.204 C 51.366 33.844 50.777 33.692 50.075 33.692 C 49.362 33.692 48.76 33.844 48.145 34.206 C 47.528 34.547 47.094 35 46.748 35.652 L 32.724 59.496 L 32.03 60.676 L 25.987 25.235 L 17.98 25.235 L 26.16 73.621 C 26.308 74.713 26.725 75.522 27.489 76.184 C 28.243 76.865 29.026 77.15 30.006 77.15 C 30.705 77.15 31.301 76.994 31.914 76.622 C 32.532 76.279 32.972 75.827 33.316 75.174 L 49.641 46.674 L 50.076 45.916 L 66.769 75.164 C 67.209 75.935 67.756 76.436 68.521 76.782 C 69.275 77.159 70.001 77.251 70.858 77.079 C 71.694 76.917 72.334 76.55 72.918 75.889 C 73.51 75.238 73.857 74.524 74.025 73.618 L 82.126 25.235 L 74.115 25.235 Z" style="fill: none;"/>
  <path d="M 74.206 40.127 L 74.523 73.062 L 66.873 73.062 L 66.669 51.808 L 53.411 71.985 C 53.089 72.506 52.633 72.899 52.041 73.164 C 51.452 73.427 50.815 73.56 50.132 73.56 C 49.468 73.56 48.854 73.427 48.285 73.164 C 47.708 72.899 47.246 72.506 46.906 71.985 L 33.206 51.808 L 33.411 73.062 L 25.828 73.062 L 25.512 40.127 C 25.505 39.38 25.755 38.714 26.262 38.133 C 26.771 37.552 27.445 37.162 28.284 36.966 C 28.69 36.884 29.097 36.853 29.504 36.876 C 29.911 36.906 30.307 36.981 30.69 37.102 C 31.074 37.223 31.417 37.397 31.73 37.623 C 32.041 37.85 32.305 38.122 32.521 38.439 L 50.041 64.054 L 67.072 38.439 C 67.51 37.805 68.119 37.355 68.906 37.091 C 69.69 36.827 70.514 36.785 71.373 36.966 C 72.189 37.162 72.866 37.552 73.403 38.133 C 73.929 38.714 74.199 39.38 74.206 40.127 Z" style="fill: url(#gradient-2-0); stroke: url(#gradient-3-0); vector-effect: non-scaling-stroke; filter: url(#point-light-filter-0);" transform="matrix(0.999937, 0.011226, -0.011226, 0.999937, 0.622916, -0.558017)"/>
  <path d="M 73.513 24.555 L 82.537 24.555 L 74.338 73.524 C 74.15 74.496 73.741 75.335 73.109 76.044 C 72.465 76.753 71.687 77.2 70.775 77.389 C 69.841 77.564 68.96 77.454 68.129 77.055 C 67.301 76.667 66.641 76.061 66.155 75.232 L 49.895 46.743 L 33.575 75.232 C 33.191 75.94 32.661 76.487 31.988 76.873 C 31.315 77.27 30.592 77.47 29.826 77.47 C 28.757 77.47 27.807 77.106 26.978 76.378 C 26.158 75.646 25.661 74.696 25.487 73.524 L 17.208 24.555 L 26.229 24.555 L 32.113 59.063 L 46.129 35.233 C 46.514 34.527 47.044 33.977 47.717 33.592 C 48.391 33.206 49.118 33.012 49.895 33.012 C 50.662 33.012 51.377 33.206 52.043 33.592 C 52.706 33.977 53.251 34.527 53.677 35.233 L 67.631 59.063 L 73.513 24.555 Z" style="stroke-miterlimit: 25; stroke-dashoffset: 21px; vector-effect: non-scaling-stroke; stroke-width: 3px; fill: url(#gradient-4); stroke: url(#gradient-5);"/>
  <path d="M 74.206 40.127 L 74.523 73.062 L 66.873 73.062 L 66.669 51.808 L 53.411 71.985 C 53.089 72.506 52.633 72.899 52.041 73.164 C 51.452 73.427 50.815 73.56 50.132 73.56 C 49.468 73.56 48.854 73.427 48.285 73.164 C 47.708 72.899 47.246 72.506 46.906 71.985 L 33.206 51.808 L 33.411 73.062 L 25.828 73.062 L 25.512 40.127 C 25.505 39.38 25.755 38.714 26.262 38.133 C 26.771 37.552 27.445 37.162 28.284 36.966 C 28.69 36.884 29.097 36.853 29.504 36.876 C 29.911 36.906 30.307 36.981 30.69 37.102 C 31.074 37.223 31.417 37.397 31.73 37.623 C 32.041 37.85 32.305 38.122 32.521 38.439 L 50.041 64.054 L 67.072 38.439 C 67.51 37.805 68.119 37.355 68.906 37.091 C 69.69 36.827 70.514 36.785 71.373 36.966 C 72.189 37.162 72.866 37.552 73.403 38.133 C 73.929 38.714 74.199 39.38 74.206 40.127 Z" style="vector-effect: non-scaling-stroke; fill: url(#gradient-2-1); stroke: url(#gradient-3-1); filter: url(#filter-1);" transform="matrix(0.999937, 0.011226, -0.011226, 0.999937, 0.622916, -0.558017)"/>
  <path d="M 67.768 59.025 L 74.817 71.593 L 74.338 73.524 C 74.15 74.496 73.741 75.335 73.109 76.044 C 72.465 76.753 71.687 77.2 70.775 77.389 C 69.841 77.564 68.96 77.454 68.129 77.055 C 67.301 76.667 66.641 76.061 66.155 75.232 L 49.895 46.743 L 33.575 75.232 C 33.191 75.94 32.661 76.487 31.988 76.873 C 31.315 77.27 30.592 77.47 29.826 77.47 C 28.757 77.47 27.807 77.106 26.978 76.378 C 26.158 75.646 25.661 74.696 25.487 73.524 L 25.286 72.132 L 32.154 58.846 L 32.113 59.063 L 46.129 35.233 C 46.514 34.527 47.044 33.977 47.717 33.592 C 48.391 33.206 49.118 33.012 49.895 33.012 C 50.662 33.012 51.377 33.206 52.043 33.592 C 52.706 33.977 53.251 34.527 53.677 35.233 L 67.631 59.063 L 67.768 59.025 Z" style="stroke-miterlimit: 25; stroke-dashoffset: 21px; vector-effect: non-scaling-stroke; stroke-width: 3px; fill: url(#gradient-6); stroke: url(#gradient-7);"/>
</svg>